<svg width="366" height="155" viewBox="0 0 366 155" fill="none" xmlns="http://www.w3.org/2000/svg">
<path d="M0.5 50.6L16.8 78.1L23.3 71.9L5.6 45.5L0.5 50.6Z" fill="url(#paint0_linear_5_173)"/>
<path d="M242.4 29L241.7 32.6L249.5 30.1L248.5 25.7L242.4 29Z" fill="#0071B9"/>
<path d="M197 4.19984L171.9 32.9998L179.2 30.8998L203.1 1.09985L197 4.19984Z" fill="url(#paint1_linear_5_173)"/>
<path d="M331.1 43.4998L337.2 40.2998L335.5 55.6998L331.1 43.4998Z" fill="#1D2C5E"/>
<path d="M292.8 53.3999L298.3 54.4999L305.3 51.0999L299.2 48.8999L292.8 53.3999Z" fill="#1D2C5E"/>
<path d="M104.3 37.1L105.1 54.8999L112.8 51.8L110.5 33.7L104.3 37.1Z" fill="url(#paint2_linear_5_173)"/>
<path d="M298.8 31.7L292.6 35L292.8 53.3999L299 50.2L301 41.3999L298.8 31.7Z" fill="url(#paint3_linear_5_173)"/>
<path d="M297.9 54.5998L291.1 114.7L302 112.6L304.1 51.2998L297.9 54.5998Z" fill="#312370"/>
<path d="M311.2 117.6L311.3 125.7L332.1 132.3L338.3 129.1L317.9 113.3L297.3 111.5L291.1 114.7L311.2 117.6Z" fill="#21386E"/>
<path d="M234.1 103.2L239.2 100.5L242.5 106.5L247.3 103.9L248.3 111.8L278.4 117.1L284.5 113.8L242.8 88.3999L213.3 93.4999L207.6 98.9999L234.1 103.2Z" fill="#21386E"/>
<path d="M224.5 29.2998L218.5 32.5998L207.6 98.9998L213.7 95.7998L224.2 58.4998L224.5 29.2998Z" fill="url(#paint4_linear_5_173)"/>
<path d="M176.3 38.2L171.5 40.7L171.9 42.3999L183.3 35.1L178.3 29.7L171.9 33L176.3 38.2Z" fill="#1D2C5E"/>
<path d="M189.5 116.6L140.2 92.2L146.4 87.5L195.6 113.3L189.5 116.6Z" fill="#21386E"/>
<path d="M144.9 25.8L137.4 40L145.3 37.6L151 22.5L144.9 25.8Z" fill="#1D2C5E"/>
<path d="M77.2 84.2998L70.9 88.5998C70.9 88.5998 72.2 95.5998 74 100.5C75.7 105.4 79.9 109.3 79.9 109.3C82.5 111.9 85.8 113.8 89.4 114.8C96.4 116.8 104.2 115.5 111 111.2C112.8 110.1 115.2 108.3 116.6 106.9C109.9 111 77.2 84.2998 77.2 84.2998Z" fill="url(#paint5_linear_5_173)"/>
<path d="M110.9 53.5L116.6 116.8L140.1 113.3L146.4 110.1L117.3 49.7L111.3 51.7L105.1 54.8999L110.9 53.5Z" fill="#1D2C5E"/>
<path d="M22.9 75.5L49.1 134.9L74 126.9L80.1 122.8L28.4 68.7L22 72.6L16.8 78.1L22.9 75.5Z" fill="url(#paint6_linear_5_173)"/>
<path d="M282.8 103.5L283.2 106.4C285.3 106.2 287.6 105.9 289.5 105.2C291.7 104.4 296.6 102.3 298.5 100.7C297.7 100.9 286.3 103.9 282.8 103.5Z" fill="#1D2C5E"/>
<path d="M194.6 88.2999L195.5 92.9999C200.5 92.1999 204.9 90.3999 209.1 87.7999C211.8 86.1999 214.7 83.8 215.6 83.2C215.1 83.6 194.6 88.2999 194.6 88.2999Z" fill="#1D2C5E"/>
<path d="M56 129.3L54 125L29.1 69.5L28.6 68.3999L27.5 68.8999L26.7 69.2L22.3 71.3999C21.6 70.2999 20.6 68.5 19.8 67.2L9.80002 50.3L7.20001 45.8999L11.5 43.2C15.6 40.6 20.2 38.2 25.2 36C35.2 31.7 45.4 29.5 54.8 29.5C57.9 29.5 60.8 29.7 63.6 30.2C68.2 30.7 72.5 32.3 76.1 34.6C81.4 37.6 85.6 42.1 87.9 47.6C89.8 52.1 90.2 57.3 89 62.7L88.3 65.8999L90.9 64C92.7 62.7 94.6 61.6 96.7 60.7C100.2 59.2 103.9 58.5 107.5 58.5C111 58.5 114.2 59.2 117.2 60.5L119.1 61.3999L118.9 59.3L118.1 50.2L118 48.8L116.6 49.2L112.4 50.3L111.7 34.8L142.5 24.8999L142.3 36.8999L144.6 37.5L151.3 24.6L171.5 42.5L172.3 43.2L173.1 42.3999C175.9 39.7999 179.1 37.7 182.8 36.2L184.3 35.6L183.2 34.3L179.6 29.8999L202.8 3.19995L214.9 21.3L196.3 31.3L192.2 33.5L196.9 33.6C205.7 33.8 213.5 37.5 218.8 44.1L220.7 46.5L221.9 48L219.8 50.2L218.4 51.7L213.8 56.6L212.9 57.5L213.8 58.3L218.1 62.2L219.8 63.7L220.2 61.5L221.9 51.2L222.3 48.5L222.7 45.8L225.2 30.5H247.4H248.4L248.6 29.5L249 26.8999H269L273.9 57.5L274.2 59.5L275.8 58.3C277.8 56.9 279.9 55.7 282.3 54.8C285.4 53.6 288.6 53 291.7 53C295.5 53 299.1 53.9 302.3 55.5C302.4 55.6 302.5 55.6 302.7 55.7L304.2 56.3L304.4 54.7L304.8 51.3999L304.9 50.3L303.8 50.1L299.7 49.2L299.5 33.2L330.5 40L332.8 51.5H335.2L337.6 41.6L363.4 47.8999L337 127.4L318.1 121.5L318 114.2V113.2L317 113.1L298.2 110.4L299.3 100.8L299.6 98.5L297.6 99.5C296.6 100 295.7 100.4 294.8 100.7C291.7 101.9 288.6 102.5 285.4 102.5C284.5 102.5 283.6 102.4 282.7 102.3L281.1 102.1L281.4 103.7L282.7 112.1L255.2 107.3L253.8 94.7999L253.3 90.7999L251.4 94.3999L248.2 100.5L242.4 89.7L240.6 86.5L240 90.1L238.7 98.3999L214.6 94.6L216.5 83.2L216.9 80.6L214.6 82C210.7 84.4 206.1 86.0999 200.8 87.3999C198.9 87.8999 197 88.1999 195 88.2999L193.9 88.3999V89.5V111.1L146.5 87.7L144.7 86.7999V88.7999V108.9L123.5 112L122.6 102.4L122.4 99.7999L120.6 101.6C117.8 104.3 114.6 106.5 111.2 107.9C107.7 109.4 104.1 110.1 100.5 110.1C96.9 110.1 93.5 109.3 90.4 107.9C84.7 105.2 80.6 100.2 78.8 93.8999C78 90.8999 77.7 87.8 78.1 84.6L78.5 81.2L76 83.6C74.2 85.3 72.4 86.8999 70.4 88.2999L69.7 88.7999L69.9 89.6L77 117L78.3 121.9L73.5 123.4L60 127.7L56 129.3ZM62 55.7C61.3 55.7 60.6 55.7999 59.9 55.8999L59 56.1L57.6 56.3999L58 57.7L58.3 58.6L62.1 71.2L62.5 72.3999L63.1 74.2L64.5 72.8999L65.4 72.1C69.1 68.7 70.4 65.3 69.6 61.1C69.1 58.5 67.1 57.2 66 56.7C64.8 56 63.5 55.7 62 55.7ZM165.1 56.1L162.7 58.3999L156.4 64.6L155 65.8999L156.8 66.6L163.6 69.2L165.7 70L165.3 67.8C164.7 65 164.6 62.0999 164.9 59.3999L165.1 56.1ZM192.8 49.1C190.2 49.1 187.6 50.2 185.8 52.2C183.1 55.2 182.5 59.6 184.5 63.2L185 64.2L185.8 65.7L187 64.3999L187.8 63.6L197.1 53L197.8 52.2L199 50.8999L197.3 50.3L196.3 49.8999C195.1 49.2999 194 49.1 192.8 49.1Z" fill="#FFCB05"/>
<path d="M207 64.7998L206.7 65.0998L207 64.7998Z" fill="#7D7F68"/>
<path d="M215 57.3999L219.6 52.3999L218 54.0999L218.1 53.8999L216.7 55.3999L212 60.2999L216.4 64.1999L217.2 59.2999L219.3 61.2999L215 57.3999Z" fill="#7D7F68"/>
<path d="M215 57.3999L219.3 61.2999L221 50.8999L219.6 52.3999L215 57.3999Z" fill="#7D7F68"/>
<path d="M182.9 69.6998C183.3 70.0998 182.9 69.7998 183.3 70.0998L186.1 68.0998C185.7 67.7998 185.3 67.4998 184.9 67.0998C180.8 63.2998 181.9 54.8998 184.5 50.2998C177.6 55.9998 177.9 64.7998 182.9 69.6998Z" fill="#C7A008"/>
<path d="M217.2 74.5C212.5 78.4 207.2 80.9 200.1 82.6C198.6 83 197 83.1999 195.6 83.2999C184.4 84.3999 175 79.2999 171.4 70.8999C171 69.8999 170.6 68.9 170.4 67.8C168.8 60.8 170.2 54.5 173.6 49.6C173.9 49.1 174.3 48.7 174.7 48.2C174.5 48.4 174.3 48.5 174.2 48.6C172.9 49.8 171.7 51.1 170.7 52.5C167.2 57.4 165.8 63.7 167.5 70.7C167.8 71.8 168.1 72.8 168.5 73.8C172.1 82.2 181.5 87.3 192.7 86.2C194.2 86.1 195.7 85.7999 197.2 85.3999C204.3 83.6999 209.6 81.1999 214.3 77.2999C215.4 76.3999 216.5 75.3 217.6 74.2L217.5 74.1L217.2 74.5Z" fill="#C7A008"/>
<path d="M138.2 53.2L150.7 35.6L150.2 35.2L138.2 52.1V53.2Z" fill="#C7A008"/>
<path d="M221 50.8999L219.3 61.2999L217.2 59.2999L216.4 64.1999L212 60.2999L216.7 55.3999L218.1 53.8999L218 54.0999L219.6 52.3999L221 50.8999Z" fill="#C7A008"/>
<path d="M205.5 21.9998L209.9 20.0998L201.9 9.7998L199.3 13.4998L205.5 21.9998Z" fill="#C7A008"/>
<path d="M84.2 47.3999C64 22.7999 27.5 35.9999 14.4 47.4999L14.9 48.3999C17.9 46.6999 21.1 45.0999 24.4 43.6999C37.4 38.0999 49.8 36.4999 59.8 38.2999C63.3 38.6999 67 39.6999 70.3 41.8999C74.8 44.3999 78.2 47.9999 80.2 52.5999C83.7 60.6999 80.6 71.4999 72.3 80.4999C82.7 70.9999 89.8 61.7999 84.2 47.3999Z" fill="#C7A008"/>
<path d="M125.5 76.1999C125.4 75.7999 125.3 75.2999 125.2 74.8999C124.1 70.7999 121.6 67.4999 118.4 65.3999C113.2 61.8999 106 61.0999 98.7 64.1999C94.9 65.7999 91.6 68.3999 89 71.3999C91 69.6999 93.3 68.1999 95.8 67.1999C103 64.0999 110.3 64.8999 115.5 68.3999C118.7 70.5999 121.1 73.7999 122.3 77.8999C122.4 78.2999 122.5 78.7999 122.6 79.2999C122.9 80.8999 123.1 82.3999 123 83.9999C122.8 88.6999 121.1 93.4999 118.2 97.4999C117.7 98.0999 117.2 98.6999 116.7 99.2999C118.4 97.8999 119.8 96.2999 121.1 94.4999C124 90.4999 125.8 85.6999 125.9 80.9999C125.9 79.2999 125.8 77.6999 125.5 76.1999Z" fill="#C7A008"/>
<path d="M105.5 70.0999L108.4 67.1999C104.7 67.0999 103.1 70.5999 103 70.7999C103.8 70.4999 104.6 70.1999 105.5 70.0999Z" fill="#C7A008"/>
<path d="M112.5 74.3998C112.7 74.8998 112.7 75.3998 112.7 75.8998C112.7 76.6998 112.5 77.3998 112.2 78.0998C112.8 77.7998 117.1 75.6998 115.4 71.2998C115.6 71.4998 112.4 74.3998 112.5 74.3998Z" fill="#C7A008"/>
<path d="M95.7 76.8999C95.7 75.0999 98.8 70.7 99.8 69.2C94.9 72.3 92.8 76.4999 92.8 79.7999C92.8 85.4999 97.8 90 103.7 90C106.5 90 111.7 88.5 115.1 83C113.3 84.2 108.8 87 106.5 87C100.4 87.1 95.7 82.5999 95.7 76.8999Z" fill="#C7A008"/>
<path d="M137.6 82.0999L137.7 105L141.3 105.2L140.6 79.0999L137.6 82.0999Z" fill="#C7A008"/>
<path d="M116.7 38.2999L116.8 40.3998L134 35.1998L135.3 57.1998L138.2 53.1998L137.6 31.0999L116.7 38.2999Z" fill="#C7A008"/>
<path d="M168.9 46.1998L152.7 31.2998L150.7 35.5998L165 49.0998L168.9 46.1998Z" fill="#C7A008"/>
<path d="M166.4 74L147.4 67.7L144.6 70.6L163.6 78.2C165.8 82.3 169 85.6999 173.1 88.2999C177.1 90.6999 181.6 92.2 186.4 92.6V102L189.3 103.5L190.2 89.3999L166.4 74Z" fill="#C7A008"/>
<path d="M197 71.3C201.7 70.2 204.4 67.7 206.7 65C205 66.4 196.2 68.3 194.7 68.8L191.8 71.9C193.2 72.1 195.4 71.7 197 71.3Z" fill="#C7A008"/>
<path d="M188.5 38.8999C179.9 39.9999 175.4 47.2999 174.6 48.1999C177.8 45.4999 181.8 43.4999 186.3 42.3999C197 39.7999 206.4 43.0999 212.2 50.2999L215.8 47.2999C210.1 40.1999 199.2 36.3999 188.5 38.8999Z" fill="#C7A008"/>
<path d="M217.5 74.1999C218.5 73.2999 220.4 72.3998 221.4 71.3998L209.8 61.0999C208.9 62.1999 208.1 63.8999 207 64.7999L217.5 74.1999Z" fill="#C7A008"/>
<path d="M276.7 101.9C264.6 91.8998 265.3 70.5998 271.3 63.7998L266 30.2998L254.3 31.7998L253.8 34.6998H262.6L267.3 65.0998C261.3 71.8998 258.5 80.9998 260.5 89.2998C262 95.6998 266 101 271.7 104C272.3 104.3 272.9 104.6 273.5 104.8L273.6 105.2L277.1 105.7C276.9 105.9 277.3 102.2 276.7 101.9Z" fill="#C7A008"/>
<path d="M230.2 35.2L229.7 38.2H243L246.9 59.7L249.9 56.7L246.7 34L230.2 35.2Z" fill="#C7A008"/>
<path d="M253 76.9998L248.7 88.0999L249.7 90.9998L255.9 74.0999L253 76.9998Z" fill="#C7A008"/>
<path d="M240.2 70L237.2 72.9L234.1 93L237.1 94.2L240.2 70Z" fill="#C7A008"/>
<path d="M300 63.5999C301.7 64.7999 303.2 66.3999 304.3 68.2999C305.2 69.6999 305.9 71.2999 306.3 73.0999C307.8 79.0999 306 85.6999 302.2 90.8999C301.8 91.3999 301.4 91.8999 301 92.3999C302.6 91.0999 321.5 77.0999 303 58.7999C282.7 52.0999 275 65.3999 274.3 66.1999C276.4 64.3999 278.9 62.8999 281.6 61.7999C288.4 59.1999 295.2 60.0999 300 63.5999Z" fill="#C7A008"/>
<path d="M289.8 64.8999C289.9 64.9999 292.7 61.8999 292.8 61.8999C289.2 61.9999 287.4 63.7999 287.6 64.5999C287.4 64.8999 287.2 65.1999 287.1 65.5999C287.8 65.1999 289.2 64.8999 289.8 64.8999Z" fill="#C7A008"/>
<path d="M296.6 69.5C296.7 70 296.8 70.5 296.8 71C296.8 71.7 296.6 72.3 296.3 72.9C296.8 72.7 301.2 71.3 299.6 66.5C299.6 66.6 296.5 69.5 296.6 69.5Z" fill="#C7A008"/>
<path d="M287 84.8C291.1 85 295.6 82.5 298.9 78C290.6 79.7 281.8 65.8 282.7 64.5C279.6 66.8 276.8 71.2 276.6 74.3C276.3 79.9 281 84.5 287 84.8Z" fill="#C7A008"/>
<path d="M332.6 120.9L334.5 122.2L358.4 50.6998L340.5 46.5999L340.3 50.7999L354.7 53.9998L332.6 120.9Z" fill="#C7A008"/>
<path d="M304.3 38.8999L304.5 42.8999L323.4 46.6999L330.7 81.2999L333.7 78.3999L326.7 43.3999L304.3 38.8999Z" fill="#C7A008"/>
<path d="M318.9 78.4L313.7 107.9L316.7 108.9L321.9 75.5L318.9 78.4Z" fill="#C7A008"/>
<path d="M72.9 118.7L64 86.5999L60.8 88.7998L69 119.6L72.9 118.7Z" fill="#C7A008"/>
<path d="M70.6 70.3999C68.6 72.5999 64 76.7999 61.4 78.3999L59.8 73.3999L56.4 62.3999L54.2 54.8999L52.1 57.5999L54.3 65.0999L57.7 76.0999L59.3 81.1999C62.8 78.8999 68 74.5999 70.6 70.3999Z" fill="#C7A008"/>
<path d="M196.2 51.3998C193.4 50.2998 189.4 50.5998 187.3 52.9998C186.8 53.4998 185.8 54.8998 185.5 55.4998C187.6 53.8998 191.3 53.4998 193.7 54.3998L196.2 51.3998Z" fill="#7D7F68"/>
<path d="M68 61.2998C67.7 59.5998 66.1 58.2998 65.3 57.9998C63.9 57.2998 61.4 57.1998 59.6 57.4998C59.9 58.5998 60.3 59.8998 60.4 60.4998C61.1 60.5998 62.3 60.7998 62.9 61.0998C63.7 61.4998 65.1 62.3998 65.4 63.9998C65.8 66.1998 65.7 68.2998 64.8 69.9998C67.4 67.4998 68.7 64.7998 68 61.2998Z" fill="#7D7F68"/>
<path d="M72.5 61.2999C71.3 54.7999 62.7 51.1999 54.3 55.7999L56.5 63.2999L59.9 74.3999L61.5 79.3999C67.8 75.2999 74.2 70.2999 72.5 61.2999ZM64.1001 71.2999C63.2001 68.2999 61.1001 61.7999 61.1001 61.7999C61.1001 61.7999 60.7 60.3999 60.2 58.7999C62 58.4999 63.7001 58.5999 65.1001 59.2999C65.9001 59.6999 67.3001 60.5999 67.6001 62.1999C68.4001 65.9999 67.1001 68.5999 64.1001 71.2999Z" fill="#3C5AA6"/>
<path d="M200.7 50.8999C196 46.5999 188.6 46.8999 184.3 51.5999C180 56.2999 180.3 63.6999 185 67.9999C185.4 68.3999 185.8 68.6999 186.2 68.9999L201.5 51.6999C201.2 51.4999 200.9 51.1999 200.7 50.8999ZM186.2 63.0999C184.7 60.3999 185 56.8999 187.2 54.3999C189.3 52.0999 192.6 51.3999 195.4 52.4999L186.2 63.0999Z" fill="#3567B0"/>
<path d="M221.1 49L212.6 57.2L220.6 64.4L221.1 49Z" fill="#1E2D5F"/>
<path d="M299.5 66.5C299.6 67 299.7 67.5 299.7 68.1C299.6 71.3 296.5 73.7999 292.9 73.6999C289.3 73.5999 286.4 70.8 286.6 67.6C286.7 64.6 289.4 62.2 292.7 62C292.1 61.9 291.4 61.8 290.7 61.8C284.6 61.5 279.7 65.7999 279.5 71.1999C279.3 76.8999 283.8 81.5999 289.8 81.7999C295.9 81.9999 300.8 77.7 301.1 72.1C301.1 70 300.6 68.1 299.5 66.5Z" fill="#3466AF"/>
<path d="M115.7 73C115.7 76.2 112.7 78.8 109.1 78.8C105.5 78.8 102.5 76.2 102.5 73C102.5 70 105.1 67.5 108.4 67.2C107.8 67.1 107.1 67 106.4 67C100.3 67 95.6 71.5 95.6 76.8C95.6 82.5 100.4 87 106.3 87C112.4 87 117.1 82.5 117.1 76.8C117.1 74.8 116.4 73 115.3 71.4C115.6 72 115.7 72.5 115.7 73Z" fill="url(#paint7_linear_5_173)"/>
<path d="M337.2 40.1999L334.5 51.2999L332 38.9999L298.7 31.6999L298.9 50.1999L303.9 51.2999L303.5 54.5999L303.4 54.4999C297.2 51.1999 289.5 50.8999 282.2 53.5999C279.8 54.4999 277.5 55.7999 275.5 57.1999L270.5 25.4999H248.4L247.8 29.0999H224.5L221.8 45.3999L219.9 42.9999C214.3 36.0999 206.1 32.1999 197 32.0999L216.8 21.4999L203 0.899902L178.1 29.5999L182.4 34.7999C178.5 36.3999 175.1 38.5999 172.3 41.1999L151 22.4999L143.5 36.7999L143.8 22.9999L110.4 33.6999L111.3 51.5999L117 50.0999L117.8 59.1999C111.3 56.2999 103.5 56.3999 96.3 59.3999C94.2 60.2999 92.2 61.4999 90.3 62.7999C91.6 57.2999 91.3 51.7999 89.1 46.8999C86.6 41.0999 82.2 36.3999 76.8 33.3999C73 30.8999 68.5 29.2999 63.8 28.7999C52.2 26.7999 38.4 28.8999 24.7 34.6999C19.7 36.7999 15 39.2999 10.8 41.9999L5.5 45.3999L8.7 50.7999L18.7 67.6999L21.8 72.8999L27.2 70.1999L28 69.9999L52.9 125.5L55.3 130.8L60.9 129L74.4 124.7L80.3 122.8L78.7 116.8L71.6 89.3999C73.7 87.8999 75.6 86.2999 77.3 84.5999C76.9 87.8999 77.1 91.1999 78 94.3999C79.9 101 84.2 106.3 90.3 109.2C96.8 112.3 104.8 112.3 112.1 109.2C115.8 107.6 119.1 105.3 121.9 102.6L122.9 113.5L146.5 110V88.8999L195.7 113.2V89.5999C197.7 89.3999 199.7 89.0999 201.7 88.5999C207.1 87.2999 211.8 85.4999 215.9 82.9999L213.8 95.5999L240.3 99.7999L241.8 90.2999L248.7 103.1L252.9 94.8999L254.4 108.3L284.5 113.6L282.9 103.5C287 104 291.4 103.4 295.6 101.8C296.6 101.4 297.6 101 298.5 100.5L297.3 111.3L317.3 114.1L317.4 122.3L338.3 128.9L365.5 46.9999L337.2 40.1999ZM219.6 52.3999L221 50.8999L219.3 61.1999L215 57.2999L219.6 52.3999ZM202 10.1999L209.3 20.0999L188.5 30.3999L187.1 28.1999L202 10.1999ZM64 86.5999L72.3 118.5L58.8 122.8L31.2 61.0999C29.7 61.8999 26.9 63.1999 24.4 64.4999L14.4 47.5999C18.4 45.0999 22.7 42.7999 27.4 40.7999C40.4 35.2999 52.8 33.5999 62.8 35.3999C66.3 35.7999 70 36.7999 73.3 38.9999C77.8 41.4999 81.2 45.0999 83.2 49.6999C87.9 60.7999 79.9 76.7999 64 86.5999ZM125.9 80.8999C125.7 85.6999 124 90.3999 121.1 94.3999C118.3 98.2999 114.4 101.5 109.9 103.5C98.2 108.4 86.5 103.5 83.4 92.3999C80.4 81.6999 87.4 68.8999 98.7 63.9999C105.9 60.8999 113.2 61.6999 118.4 65.1999C121.6 67.3999 124.1 70.5999 125.2 74.6999C125.3 75.0999 125.4 75.5999 125.5 75.9999C125.8 77.6999 125.9 79.2999 125.9 80.8999ZM189.4 103.5L140.6 78.9999L140.7 104.6L128.1 106.3L127.2 95.7999C131.1 89.0999 132.5 81.1999 130.5 73.9999C129.4 69.9999 127.3 66.5999 124.5 63.7999L122.7 42.2999L117 43.7999L116.7 38.3999L137 32.3999L138.2 53.2999L153.1 32.2999L167.7 46.1999L147.3 67.6999L166.5 75.2999C168.6 79.3999 171.9 82.7999 176 85.3999C180 87.7999 184.5 89.2999 189.3 89.7999L189.4 103.5ZM164 68.0999L157.2 65.4999L163.5 59.2999C163.3 62.0999 163.4 65.0999 164 68.0999ZM217.2 74.4999C212.5 78.3999 207.2 80.8999 200.1 82.5999C198.6 82.9999 197 83.1999 195.6 83.2999C184.4 84.3999 175 79.2999 171.4 70.8999C171 69.8999 170.6 68.8999 170.4 67.7999C168.8 60.7999 170.2 54.4999 173.6 49.5999C174.6 48.1999 175.8 46.8999 177.1 45.6999C180.4 42.7999 184.5 40.6999 189.3 39.4999C200 36.8999 209.4 40.1999 215.1 47.2999L194.8 68.8999C196.2 69.1999 198.4 68.7999 200 68.3999C204.8 67.1999 207.6 64.5999 209.9 61.7999L218 69.0999L220.5 71.2999C219.4 72.4999 218.3 73.4999 217.2 74.4999ZM260.3 103.4L255.9 74.0999L249.6 90.2999L240.2 70.0999H240.1L236.4 93.4999L220.8 90.7999L223 77.6999C223.6 77.0999 224.2 76.5999 224.7 75.9999L229.8 70.7999L224.9 66.3999L230.1 35.2999H245.9L249.8 56.7999L254.2 31.8999H265.5L270.2 62.2999C264.2 69.0999 261.4 78.1999 263.3 86.4999C264.8 92.9999 268.8 98.1999 274.5 101.2C275.1 101.5 275.7 101.8 276.3 102L276.9 105.9L260.3 103.4ZM299.2 93.7999C297.5 94.9999 295.6 96.0999 293.5 96.7999C289.5 98.2999 285.5 98.6999 281.9 97.8999C279.4 97.3999 277.2 96.3999 275.2 94.9999C272.1 92.6999 269.8 89.3999 268.7 85.1999C267.5 80.0999 268.6 74.7999 271.3 69.9999C272.7 67.6999 274.4 65.4999 276.4 63.5999C278.7 61.4999 281.4 59.8999 284.3 58.6999C291.2 56.0999 298 56.9999 302.8 60.4999C304.6 61.6999 306 63.2999 307.2 65.1999C308.1 66.6999 308.7 68.2999 309.2 69.9999C310.7 76.0999 308.9 82.5999 305.1 87.7999C303.5 90.1999 301.5 92.1999 299.2 93.7999ZM334.4 121.4L322.9 118L321.9 75.3999L316.1 108.2L303.5 106.2L304.4 96.6999C312.6 89.7999 317 78.7999 314.6 68.8999C313.6 64.4999 311.3 60.6999 308.1 57.7999L309.2 46.5999L304.4 45.2999L304.7 39.2999L326.4 43.6999L333.7 78.2999L341.2 47.2999L357.7 50.8999L334.4 121.4Z" fill="url(#paint8_linear_5_173)"/>
<path d="M343.9 125.5V122.2H342.7V121.8H345.6V122.2H344.4V125.5H343.9Z" fill="black"/>
<path d="M346 125.5V121.9H346.7L347.6 124.5C347.7 124.7 347.7 124.9 347.8 125C347.8 124.9 347.9 124.7 348 124.4L348.9 121.9H349.5V125.5H349V122.5L347.9 125.5H347.5L346.4 122.4V125.5H346Z" fill="black"/>
<mask id="path-64-outside-1_5_173" maskUnits="userSpaceOnUse" x="98" y="95" width="188" height="60" fill="black">
<rect fill="white" x="98" y="95" width="188" height="60"/>
<path d="M107 140.674C107.618 138.538 108.217 136.113 108.799 133.397C109.416 130.682 109.998 127.913 110.543 125.089C111.124 122.229 111.669 119.532 112.178 116.997C112.65 114.68 113.104 112.327 113.54 109.938C113.976 107.548 114.412 105.141 114.848 102.715L123.35 101.358C122.878 103.783 122.405 106.191 121.933 108.58C121.461 110.933 120.988 113.287 120.516 115.64C120.007 118.174 119.481 120.853 118.936 123.677C118.391 126.501 117.864 129.288 117.355 132.04C116.846 134.755 116.374 137.289 115.938 139.642C115.284 139.642 114.467 139.697 113.486 139.805C112.505 139.878 111.524 139.986 110.543 140.131C109.562 140.24 108.726 140.348 108.036 140.457C107.382 140.566 107.036 140.638 107 140.674Z"/>
<path d="M118.51 141C119.6 135.787 120.636 130.736 121.617 125.849C122.416 121.251 123.197 116.834 123.96 112.599C124.723 108.363 125.268 104.471 125.595 100.923C125.85 100.959 126.068 100.977 126.249 100.977C126.467 100.977 126.649 100.977 126.794 100.977H127.939C128.883 100.977 129.937 100.959 131.1 100.923C132.262 100.851 133.334 100.796 134.315 100.76C134.57 102.027 134.806 103.276 135.024 104.507C135.278 105.738 135.496 106.933 135.678 108.091C135.859 109.105 136.059 110.155 136.277 111.241C136.495 112.291 136.713 113.359 136.931 114.445C137.113 115.531 137.295 116.545 137.476 117.486C137.694 118.391 137.876 119.224 138.021 119.984C138.457 117.848 138.857 115.748 139.22 113.685C139.62 111.621 140.001 109.757 140.365 108.091L141.945 100.815L148.594 100C147.977 102.751 147.395 105.449 146.85 108.091C146.305 110.734 145.797 113.287 145.324 115.748C144.416 120.165 143.617 124.328 142.926 128.238C142.236 132.148 141.709 135.551 141.346 138.448C141.745 138.448 141.673 138.502 141.128 138.611C140.619 138.683 139.856 138.81 138.839 138.991C137.821 139.136 136.731 139.335 135.569 139.588C134.406 139.842 133.371 140.149 132.462 140.511C132.353 139.063 132.244 137.651 132.135 136.276C132.026 134.9 131.899 133.56 131.754 132.257C131.536 129.94 131.281 127.641 130.991 125.36C130.7 123.079 130.409 121.269 130.119 119.93C129.864 121.523 129.556 123.351 129.192 125.415C128.829 127.442 128.429 129.487 127.993 131.551L126.467 139.154L118.51 141Z"/>
<path d="M143.098 140.783C143.606 139.045 144.097 137.072 144.569 134.864C145.042 132.619 145.478 130.338 145.877 128.021C146.313 125.704 146.713 123.55 147.076 121.559C147.44 119.568 147.73 117.921 147.948 116.617C148.348 114.192 148.729 111.748 149.093 109.286C149.492 106.788 149.874 104.254 150.237 101.683L168.495 100.76L166.914 107.44H158.358L156.668 117.106C157.25 117.07 157.795 117.052 158.303 117.052C158.848 117.052 159.375 117.052 159.884 117.052H162.445C162.881 117.052 163.263 117.052 163.59 117.052C163.917 117.052 164.207 117.034 164.462 116.997C164.425 117.504 164.371 118.011 164.298 118.518C164.226 118.989 164.153 119.477 164.08 119.984L163.59 122.917C162.827 122.917 161.719 122.898 160.265 122.862C158.848 122.79 157.34 122.736 155.742 122.699L153.235 138.719C152.617 138.828 151.999 138.936 151.382 139.045C150.8 139.154 150.201 139.28 149.583 139.425C148.566 139.606 147.458 139.823 146.259 140.077C145.06 140.33 144.006 140.566 143.098 140.783Z"/>
<path d="M171.319 140.946C168.921 140.946 166.959 140.023 165.433 138.176C163.907 136.33 163.144 133.542 163.144 129.813C163.144 127.75 163.398 125.577 163.907 123.297C164.416 121.016 165.124 118.771 166.033 116.563C166.941 114.355 167.995 112.309 169.194 110.426C171.119 107.385 173.336 104.906 175.843 102.987C178.35 101.068 180.984 100.109 183.745 100.109C185.925 100.109 187.596 100.67 188.759 101.792C189.958 102.878 190.794 104.29 191.266 106.028C191.738 107.729 191.975 109.503 191.975 111.35C191.975 115.658 191.302 119.676 189.958 123.405C188.65 127.098 186.942 130.23 184.835 132.8C182.728 135.443 180.475 137.47 178.077 138.882C175.715 140.258 173.463 140.946 171.319 140.946ZM174.262 131.985C175.897 131.985 177.332 131.442 178.568 130.356C179.839 129.27 180.911 127.894 181.783 126.229C182.655 124.528 183.309 122.754 183.745 120.907C184.181 119.061 184.399 117.396 184.399 115.911C184.399 115.332 184.345 114.717 184.236 114.065C184.127 113.377 183.89 112.78 183.527 112.273C183.164 111.766 182.601 111.513 181.838 111.513C180.166 111.513 178.658 112.128 177.314 113.359C175.97 114.554 174.843 116.074 173.935 117.921C173.027 119.803 172.355 121.649 171.919 123.46C171.483 125.27 171.265 126.917 171.265 128.401C171.265 129.162 171.537 129.958 172.082 130.791C172.627 131.587 173.354 131.985 174.262 131.985Z"/>
<path d="M191.602 141C191.093 141 190.585 140.964 190.076 140.891C189.567 140.855 189.059 140.801 188.55 140.728L191.438 126.121C191.802 124.129 192.183 122.03 192.583 119.821C193.019 117.577 193.437 115.368 193.837 113.196C194.236 110.988 194.581 108.942 194.872 107.06C195.199 105.177 195.453 103.584 195.635 102.281C197.197 101.991 198.778 101.72 200.377 101.466C201.975 101.213 203.61 101.086 205.282 101.086C207.97 101.086 210.096 101.647 211.658 102.77C213.22 103.856 214.347 105.304 215.037 107.114C215.727 108.888 216.073 110.843 216.073 112.979C216.073 114.898 215.8 116.925 215.255 119.061C214.71 121.161 213.929 123.26 212.912 125.36C211.931 127.424 210.75 129.379 209.369 131.225C207.225 134.085 204.609 136.438 201.521 138.285C198.469 140.095 195.163 141 191.602 141ZM198.088 134.158C199.359 133.325 200.558 132.058 201.685 130.356C202.847 128.655 203.937 126.609 204.955 124.22C205.863 122.011 206.571 119.93 207.08 117.975C207.589 115.984 207.843 114.336 207.843 113.033C207.843 111.694 207.462 110.644 206.699 109.883C205.972 109.123 204.809 108.743 203.211 108.743C202.629 111.857 202.03 114.735 201.412 117.377C200.831 120.02 200.249 122.681 199.668 125.36C199.123 128.039 198.596 130.972 198.088 134.158Z"/>
<path d="M226.504 140.62C226.577 140.004 226.65 139.407 226.722 138.828C226.795 138.249 226.868 137.669 226.94 137.09L227.267 134.049C227.304 133.542 227.34 133.072 227.376 132.637C227.413 132.203 227.449 131.804 227.485 131.442H222.744L220.564 139.262C219.764 139.371 218.82 139.498 217.73 139.642C216.64 139.751 215.622 139.86 214.678 139.968C214.096 140.041 213.515 140.113 212.934 140.185C212.389 140.258 211.825 140.33 211.244 140.403L215.55 126.175C216.058 124.473 216.64 122.536 217.294 120.364C217.948 118.192 218.602 115.966 219.256 113.685C219.946 111.404 220.582 109.268 221.163 107.277C221.781 105.249 222.271 103.548 222.635 102.172C225.105 101.991 227.612 101.774 230.156 101.521C232.735 101.267 235.242 100.923 237.677 100.489C237.495 102.516 237.313 104.815 237.132 107.385C236.986 109.92 236.841 112.544 236.696 115.26C236.587 117.975 236.46 120.654 236.314 123.297C236.242 125.795 236.151 128.383 236.042 131.062C235.933 133.705 235.824 136.42 235.715 139.208C235.17 139.28 234.625 139.353 234.08 139.425C233.535 139.498 232.99 139.57 232.445 139.642C231.536 139.787 230.537 139.95 229.447 140.131C228.357 140.312 227.376 140.475 226.504 140.62ZM224.052 126.012C224.27 126.012 224.669 125.994 225.251 125.958C225.868 125.921 226.45 125.885 226.995 125.849C227.54 125.813 227.867 125.795 227.976 125.795C227.976 125.324 228.048 124.365 228.194 122.917C228.339 121.468 228.484 119.948 228.63 118.355C228.702 117.414 228.775 116.454 228.848 115.477C228.957 114.463 229.066 113.431 229.175 112.381L229.502 107.657L228.684 107.711L227.431 112.381L224.052 126.012Z"/>
<path d="M240.871 140.783C241.271 138.792 241.671 136.819 242.07 134.864C242.506 132.872 242.906 130.917 243.269 128.999C244.65 122.12 245.776 115.531 246.648 109.232C246.249 109.159 245.831 109.123 245.395 109.123C244.959 109.087 244.541 109.087 244.141 109.123C243.269 109.196 242.416 109.087 241.58 108.797C241.616 108.508 241.634 108.2 241.634 107.874C241.634 107.512 241.634 107.15 241.634 106.788C241.634 106.39 241.634 106.01 241.634 105.648C241.634 105.249 241.653 104.869 241.689 104.507C241.725 104.109 241.743 103.693 241.743 103.258C241.743 102.788 241.762 102.317 241.798 101.846C242.743 101.919 243.687 101.973 244.632 102.009C245.577 102.045 246.521 102.064 247.466 102.064C250.155 102.064 252.716 101.973 255.15 101.792C257.621 101.611 259.892 101.394 261.963 101.14L261.363 104.073L260.873 106.625C260.691 107.566 260.528 108.309 260.382 108.852C259.983 108.96 259.583 109.051 259.183 109.123C258.784 109.196 258.384 109.25 257.984 109.286C257.585 109.322 257.167 109.377 256.731 109.449C256.331 109.521 255.932 109.594 255.532 109.666C254.987 112.345 254.533 114.662 254.169 116.617C253.842 118.572 253.534 120.455 253.243 122.265C252.989 124.039 252.68 125.994 252.316 128.13C251.699 131.786 251.154 135.497 250.681 139.262L240.871 140.783Z"/>
<path d="M269.827 140.62C269.9 140.004 269.973 139.407 270.045 138.828C270.118 138.249 270.191 137.669 270.263 137.09L270.59 134.049C270.627 133.542 270.663 133.072 270.699 132.637C270.736 132.203 270.772 131.804 270.808 131.442H266.067L263.887 139.262C263.088 139.371 262.143 139.498 261.053 139.642C259.963 139.751 258.946 139.86 258.001 139.968C257.42 140.041 256.838 140.113 256.257 140.185C255.712 140.258 255.149 140.33 254.567 140.403L258.873 126.175C259.382 124.473 259.963 122.536 260.617 120.364C261.271 118.192 261.925 115.966 262.579 113.685C263.269 111.404 263.905 109.268 264.486 107.277C265.104 105.249 265.595 103.548 265.958 102.172C268.429 101.991 270.936 101.774 273.479 101.521C276.059 101.267 278.566 100.923 281 100.489C280.818 102.516 280.637 104.815 280.455 107.385C280.31 109.92 280.164 112.544 280.019 115.26C279.91 117.975 279.783 120.654 279.637 123.297C279.565 125.795 279.474 128.383 279.365 131.062C279.256 133.705 279.147 136.42 279.038 139.208C278.493 139.28 277.948 139.353 277.403 139.425C276.858 139.498 276.313 139.57 275.768 139.642C274.86 139.787 273.86 139.95 272.77 140.131C271.68 140.312 270.699 140.475 269.827 140.62ZM267.375 126.012C267.593 126.012 267.993 125.994 268.574 125.958C269.192 125.921 269.773 125.885 270.318 125.849C270.863 125.813 271.19 125.795 271.299 125.795C271.299 125.324 271.372 124.365 271.517 122.917C271.662 121.468 271.808 119.948 271.953 118.355C272.026 117.414 272.098 116.454 272.171 115.477C272.28 114.463 272.389 113.431 272.498 112.381L272.825 107.657L272.007 107.711L270.754 112.381L267.375 126.012Z"/>
</mask>
<path d="M107 140.674C107.618 138.538 108.217 136.113 108.799 133.397C109.416 130.682 109.998 127.913 110.543 125.089C111.124 122.229 111.669 119.532 112.178 116.997C112.65 114.68 113.104 112.327 113.54 109.938C113.976 107.548 114.412 105.141 114.848 102.715L123.35 101.358C122.878 103.783 122.405 106.191 121.933 108.58C121.461 110.933 120.988 113.287 120.516 115.64C120.007 118.174 119.481 120.853 118.936 123.677C118.391 126.501 117.864 129.288 117.355 132.04C116.846 134.755 116.374 137.289 115.938 139.642C115.284 139.642 114.467 139.697 113.486 139.805C112.505 139.878 111.524 139.986 110.543 140.131C109.562 140.24 108.726 140.348 108.036 140.457C107.382 140.566 107.036 140.638 107 140.674Z" fill="#FFCB05"/>
<path d="M118.51 141C119.6 135.787 120.636 130.736 121.617 125.849C122.416 121.251 123.197 116.834 123.96 112.599C124.723 108.363 125.268 104.471 125.595 100.923C125.85 100.959 126.068 100.977 126.249 100.977C126.467 100.977 126.649 100.977 126.794 100.977H127.939C128.883 100.977 129.937 100.959 131.1 100.923C132.262 100.851 133.334 100.796 134.315 100.76C134.57 102.027 134.806 103.276 135.024 104.507C135.278 105.738 135.496 106.933 135.678 108.091C135.859 109.105 136.059 110.155 136.277 111.241C136.495 112.291 136.713 113.359 136.931 114.445C137.113 115.531 137.295 116.545 137.476 117.486C137.694 118.391 137.876 119.224 138.021 119.984C138.457 117.848 138.857 115.748 139.22 113.685C139.62 111.621 140.001 109.757 140.365 108.091L141.945 100.815L148.594 100C147.977 102.751 147.395 105.449 146.85 108.091C146.305 110.734 145.797 113.287 145.324 115.748C144.416 120.165 143.617 124.328 142.926 128.238C142.236 132.148 141.709 135.551 141.346 138.448C141.745 138.448 141.673 138.502 141.128 138.611C140.619 138.683 139.856 138.81 138.839 138.991C137.821 139.136 136.731 139.335 135.569 139.588C134.406 139.842 133.371 140.149 132.462 140.511C132.353 139.063 132.244 137.651 132.135 136.276C132.026 134.9 131.899 133.56 131.754 132.257C131.536 129.94 131.281 127.641 130.991 125.36C130.7 123.079 130.409 121.269 130.119 119.93C129.864 121.523 129.556 123.351 129.192 125.415C128.829 127.442 128.429 129.487 127.993 131.551L126.467 139.154L118.51 141Z" fill="#FFCB05"/>
<path d="M143.098 140.783C143.606 139.045 144.097 137.072 144.569 134.864C145.042 132.619 145.478 130.338 145.877 128.021C146.313 125.704 146.713 123.55 147.076 121.559C147.44 119.568 147.73 117.921 147.948 116.617C148.348 114.192 148.729 111.748 149.093 109.286C149.492 106.788 149.874 104.254 150.237 101.683L168.495 100.76L166.914 107.44H158.358L156.668 117.106C157.25 117.07 157.795 117.052 158.303 117.052C158.848 117.052 159.375 117.052 159.884 117.052H162.445C162.881 117.052 163.263 117.052 163.59 117.052C163.917 117.052 164.207 117.034 164.462 116.997C164.425 117.504 164.371 118.011 164.298 118.518C164.226 118.989 164.153 119.477 164.08 119.984L163.59 122.917C162.827 122.917 161.719 122.898 160.265 122.862C158.848 122.79 157.34 122.736 155.742 122.699L153.235 138.719C152.617 138.828 151.999 138.936 151.382 139.045C150.8 139.154 150.201 139.28 149.583 139.425C148.566 139.606 147.458 139.823 146.259 140.077C145.06 140.33 144.006 140.566 143.098 140.783Z" fill="#FFCB05"/>
<path d="M171.319 140.946C168.921 140.946 166.959 140.023 165.433 138.176C163.907 136.33 163.144 133.542 163.144 129.813C163.144 127.75 163.398 125.577 163.907 123.297C164.416 121.016 165.124 118.771 166.033 116.563C166.941 114.355 167.995 112.309 169.194 110.426C171.119 107.385 173.336 104.906 175.843 102.987C178.35 101.068 180.984 100.109 183.745 100.109C185.925 100.109 187.596 100.67 188.759 101.792C189.958 102.878 190.794 104.29 191.266 106.028C191.738 107.729 191.975 109.503 191.975 111.35C191.975 115.658 191.302 119.676 189.958 123.405C188.65 127.098 186.942 130.23 184.835 132.8C182.728 135.443 180.475 137.47 178.077 138.882C175.715 140.258 173.463 140.946 171.319 140.946ZM174.262 131.985C175.897 131.985 177.332 131.442 178.568 130.356C179.839 129.27 180.911 127.894 181.783 126.229C182.655 124.528 183.309 122.754 183.745 120.907C184.181 119.061 184.399 117.396 184.399 115.911C184.399 115.332 184.345 114.717 184.236 114.065C184.127 113.377 183.89 112.78 183.527 112.273C183.164 111.766 182.601 111.513 181.838 111.513C180.166 111.513 178.658 112.128 177.314 113.359C175.97 114.554 174.843 116.074 173.935 117.921C173.027 119.803 172.355 121.649 171.919 123.46C171.483 125.27 171.265 126.917 171.265 128.401C171.265 129.162 171.537 129.958 172.082 130.791C172.627 131.587 173.354 131.985 174.262 131.985Z" fill="#FFCB05"/>
<path d="M191.602 141C191.093 141 190.585 140.964 190.076 140.891C189.567 140.855 189.059 140.801 188.55 140.728L191.438 126.121C191.802 124.129 192.183 122.03 192.583 119.821C193.019 117.577 193.437 115.368 193.837 113.196C194.236 110.988 194.581 108.942 194.872 107.06C195.199 105.177 195.453 103.584 195.635 102.281C197.197 101.991 198.778 101.72 200.377 101.466C201.975 101.213 203.61 101.086 205.282 101.086C207.97 101.086 210.096 101.647 211.658 102.77C213.22 103.856 214.347 105.304 215.037 107.114C215.727 108.888 216.073 110.843 216.073 112.979C216.073 114.898 215.8 116.925 215.255 119.061C214.71 121.161 213.929 123.26 212.912 125.36C211.931 127.424 210.75 129.379 209.369 131.225C207.225 134.085 204.609 136.438 201.521 138.285C198.469 140.095 195.163 141 191.602 141ZM198.088 134.158C199.359 133.325 200.558 132.058 201.685 130.356C202.847 128.655 203.937 126.609 204.955 124.22C205.863 122.011 206.571 119.93 207.08 117.975C207.589 115.984 207.843 114.336 207.843 113.033C207.843 111.694 207.462 110.644 206.699 109.883C205.972 109.123 204.809 108.743 203.211 108.743C202.629 111.857 202.03 114.735 201.412 117.377C200.831 120.02 200.249 122.681 199.668 125.36C199.123 128.039 198.596 130.972 198.088 134.158Z" fill="#FFCB05"/>
<path d="M226.504 140.62C226.577 140.004 226.65 139.407 226.722 138.828C226.795 138.249 226.868 137.669 226.94 137.09L227.267 134.049C227.304 133.542 227.34 133.072 227.376 132.637C227.413 132.203 227.449 131.804 227.485 131.442H222.744L220.564 139.262C219.764 139.371 218.82 139.498 217.73 139.642C216.64 139.751 215.622 139.86 214.678 139.968C214.096 140.041 213.515 140.113 212.934 140.185C212.389 140.258 211.825 140.33 211.244 140.403L215.55 126.175C216.058 124.473 216.64 122.536 217.294 120.364C217.948 118.192 218.602 115.966 219.256 113.685C219.946 111.404 220.582 109.268 221.163 107.277C221.781 105.249 222.271 103.548 222.635 102.172C225.105 101.991 227.612 101.774 230.156 101.521C232.735 101.267 235.242 100.923 237.677 100.489C237.495 102.516 237.313 104.815 237.132 107.385C236.986 109.92 236.841 112.544 236.696 115.26C236.587 117.975 236.46 120.654 236.314 123.297C236.242 125.795 236.151 128.383 236.042 131.062C235.933 133.705 235.824 136.42 235.715 139.208C235.17 139.28 234.625 139.353 234.08 139.425C233.535 139.498 232.99 139.57 232.445 139.642C231.536 139.787 230.537 139.95 229.447 140.131C228.357 140.312 227.376 140.475 226.504 140.62ZM224.052 126.012C224.27 126.012 224.669 125.994 225.251 125.958C225.868 125.921 226.45 125.885 226.995 125.849C227.54 125.813 227.867 125.795 227.976 125.795C227.976 125.324 228.048 124.365 228.194 122.917C228.339 121.468 228.484 119.948 228.63 118.355C228.702 117.414 228.775 116.454 228.848 115.477C228.957 114.463 229.066 113.431 229.175 112.381L229.502 107.657L228.684 107.711L227.431 112.381L224.052 126.012Z" fill="#FFCB05"/>
<path d="M240.871 140.783C241.271 138.792 241.671 136.819 242.07 134.864C242.506 132.872 242.906 130.917 243.269 128.999C244.65 122.12 245.776 115.531 246.648 109.232C246.249 109.159 245.831 109.123 245.395 109.123C244.959 109.087 244.541 109.087 244.141 109.123C243.269 109.196 242.416 109.087 241.58 108.797C241.616 108.508 241.634 108.2 241.634 107.874C241.634 107.512 241.634 107.15 241.634 106.788C241.634 106.39 241.634 106.01 241.634 105.648C241.634 105.249 241.653 104.869 241.689 104.507C241.725 104.109 241.743 103.693 241.743 103.258C241.743 102.788 241.762 102.317 241.798 101.846C242.743 101.919 243.687 101.973 244.632 102.009C245.577 102.045 246.521 102.064 247.466 102.064C250.155 102.064 252.716 101.973 255.15 101.792C257.621 101.611 259.892 101.394 261.963 101.14L261.363 104.073L260.873 106.625C260.691 107.566 260.528 108.309 260.382 108.852C259.983 108.96 259.583 109.051 259.183 109.123C258.784 109.196 258.384 109.25 257.984 109.286C257.585 109.322 257.167 109.377 256.731 109.449C256.331 109.521 255.932 109.594 255.532 109.666C254.987 112.345 254.533 114.662 254.169 116.617C253.842 118.572 253.534 120.455 253.243 122.265C252.989 124.039 252.68 125.994 252.316 128.13C251.699 131.786 251.154 135.497 250.681 139.262L240.871 140.783Z" fill="#FFCB05"/>
<path d="M269.827 140.62C269.9 140.004 269.973 139.407 270.045 138.828C270.118 138.249 270.191 137.669 270.263 137.09L270.59 134.049C270.627 133.542 270.663 133.072 270.699 132.637C270.736 132.203 270.772 131.804 270.808 131.442H266.067L263.887 139.262C263.088 139.371 262.143 139.498 261.053 139.642C259.963 139.751 258.946 139.86 258.001 139.968C257.42 140.041 256.838 140.113 256.257 140.185C255.712 140.258 255.149 140.33 254.567 140.403L258.873 126.175C259.382 124.473 259.963 122.536 260.617 120.364C261.271 118.192 261.925 115.966 262.579 113.685C263.269 111.404 263.905 109.268 264.486 107.277C265.104 105.249 265.595 103.548 265.958 102.172C268.429 101.991 270.936 101.774 273.479 101.521C276.059 101.267 278.566 100.923 281 100.489C280.818 102.516 280.637 104.815 280.455 107.385C280.31 109.92 280.164 112.544 280.019 115.26C279.91 117.975 279.783 120.654 279.637 123.297C279.565 125.795 279.474 128.383 279.365 131.062C279.256 133.705 279.147 136.42 279.038 139.208C278.493 139.28 277.948 139.353 277.403 139.425C276.858 139.498 276.313 139.57 275.768 139.642C274.86 139.787 273.86 139.95 272.77 140.131C271.68 140.312 270.699 140.475 269.827 140.62ZM267.375 126.012C267.593 126.012 267.993 125.994 268.574 125.958C269.192 125.921 269.773 125.885 270.318 125.849C270.863 125.813 271.19 125.795 271.299 125.795C271.299 125.324 271.372 124.365 271.517 122.917C271.662 121.468 271.808 119.948 271.953 118.355C272.026 117.414 272.098 116.454 272.171 115.477C272.28 114.463 272.389 113.431 272.498 112.381L272.825 107.657L272.007 107.711L270.754 112.381L267.375 126.012Z" fill="#FFCB05"/>
<path d="M107 140.674C107.618 138.538 108.217 136.113 108.799 133.397C109.416 130.682 109.998 127.913 110.543 125.089C111.124 122.229 111.669 119.532 112.178 116.997C112.65 114.68 113.104 112.327 113.54 109.938C113.976 107.548 114.412 105.141 114.848 102.715L123.35 101.358C122.878 103.783 122.405 106.191 121.933 108.58C121.461 110.933 120.988 113.287 120.516 115.64C120.007 118.174 119.481 120.853 118.936 123.677C118.391 126.501 117.864 129.288 117.355 132.04C116.846 134.755 116.374 137.289 115.938 139.642C115.284 139.642 114.467 139.697 113.486 139.805C112.505 139.878 111.524 139.986 110.543 140.131C109.562 140.24 108.726 140.348 108.036 140.457C107.382 140.566 107.036 140.638 107 140.674Z" stroke="url(#paint9_linear_5_173)" stroke-width="8" mask="url(#path-64-outside-1_5_173)"/>
<path d="M118.51 141C119.6 135.787 120.636 130.736 121.617 125.849C122.416 121.251 123.197 116.834 123.96 112.599C124.723 108.363 125.268 104.471 125.595 100.923C125.85 100.959 126.068 100.977 126.249 100.977C126.467 100.977 126.649 100.977 126.794 100.977H127.939C128.883 100.977 129.937 100.959 131.1 100.923C132.262 100.851 133.334 100.796 134.315 100.76C134.57 102.027 134.806 103.276 135.024 104.507C135.278 105.738 135.496 106.933 135.678 108.091C135.859 109.105 136.059 110.155 136.277 111.241C136.495 112.291 136.713 113.359 136.931 114.445C137.113 115.531 137.295 116.545 137.476 117.486C137.694 118.391 137.876 119.224 138.021 119.984C138.457 117.848 138.857 115.748 139.22 113.685C139.62 111.621 140.001 109.757 140.365 108.091L141.945 100.815L148.594 100C147.977 102.751 147.395 105.449 146.85 108.091C146.305 110.734 145.797 113.287 145.324 115.748C144.416 120.165 143.617 124.328 142.926 128.238C142.236 132.148 141.709 135.551 141.346 138.448C141.745 138.448 141.673 138.502 141.128 138.611C140.619 138.683 139.856 138.81 138.839 138.991C137.821 139.136 136.731 139.335 135.569 139.588C134.406 139.842 133.371 140.149 132.462 140.511C132.353 139.063 132.244 137.651 132.135 136.276C132.026 134.9 131.899 133.56 131.754 132.257C131.536 129.94 131.281 127.641 130.991 125.36C130.7 123.079 130.409 121.269 130.119 119.93C129.864 121.523 129.556 123.351 129.192 125.415C128.829 127.442 128.429 129.487 127.993 131.551L126.467 139.154L118.51 141Z" stroke="url(#paint10_linear_5_173)" stroke-width="8" mask="url(#path-64-outside-1_5_173)"/>
<path d="M143.098 140.783C143.606 139.045 144.097 137.072 144.569 134.864C145.042 132.619 145.478 130.338 145.877 128.021C146.313 125.704 146.713 123.55 147.076 121.559C147.44 119.568 147.73 117.921 147.948 116.617C148.348 114.192 148.729 111.748 149.093 109.286C149.492 106.788 149.874 104.254 150.237 101.683L168.495 100.76L166.914 107.44H158.358L156.668 117.106C157.25 117.07 157.795 117.052 158.303 117.052C158.848 117.052 159.375 117.052 159.884 117.052H162.445C162.881 117.052 163.263 117.052 163.59 117.052C163.917 117.052 164.207 117.034 164.462 116.997C164.425 117.504 164.371 118.011 164.298 118.518C164.226 118.989 164.153 119.477 164.08 119.984L163.59 122.917C162.827 122.917 161.719 122.898 160.265 122.862C158.848 122.79 157.34 122.736 155.742 122.699L153.235 138.719C152.617 138.828 151.999 138.936 151.382 139.045C150.8 139.154 150.201 139.28 149.583 139.425C148.566 139.606 147.458 139.823 146.259 140.077C145.06 140.33 144.006 140.566 143.098 140.783Z" stroke="url(#paint11_linear_5_173)" stroke-width="8" mask="url(#path-64-outside-1_5_173)"/>
<path d="M171.319 140.946C168.921 140.946 166.959 140.023 165.433 138.176C163.907 136.33 163.144 133.542 163.144 129.813C163.144 127.75 163.398 125.577 163.907 123.297C164.416 121.016 165.124 118.771 166.033 116.563C166.941 114.355 167.995 112.309 169.194 110.426C171.119 107.385 173.336 104.906 175.843 102.987C178.35 101.068 180.984 100.109 183.745 100.109C185.925 100.109 187.596 100.67 188.759 101.792C189.958 102.878 190.794 104.29 191.266 106.028C191.738 107.729 191.975 109.503 191.975 111.35C191.975 115.658 191.302 119.676 189.958 123.405C188.65 127.098 186.942 130.23 184.835 132.8C182.728 135.443 180.475 137.47 178.077 138.882C175.715 140.258 173.463 140.946 171.319 140.946ZM174.262 131.985C175.897 131.985 177.332 131.442 178.568 130.356C179.839 129.27 180.911 127.894 181.783 126.229C182.655 124.528 183.309 122.754 183.745 120.907C184.181 119.061 184.399 117.396 184.399 115.911C184.399 115.332 184.345 114.717 184.236 114.065C184.127 113.377 183.89 112.78 183.527 112.273C183.164 111.766 182.601 111.513 181.838 111.513C180.166 111.513 178.658 112.128 177.314 113.359C175.97 114.554 174.843 116.074 173.935 117.921C173.027 119.803 172.355 121.649 171.919 123.46C171.483 125.27 171.265 126.917 171.265 128.401C171.265 129.162 171.537 129.958 172.082 130.791C172.627 131.587 173.354 131.985 174.262 131.985Z" stroke="url(#paint12_linear_5_173)" stroke-width="8" mask="url(#path-64-outside-1_5_173)"/>
<path d="M191.602 141C191.093 141 190.585 140.964 190.076 140.891C189.567 140.855 189.059 140.801 188.55 140.728L191.438 126.121C191.802 124.129 192.183 122.03 192.583 119.821C193.019 117.577 193.437 115.368 193.837 113.196C194.236 110.988 194.581 108.942 194.872 107.06C195.199 105.177 195.453 103.584 195.635 102.281C197.197 101.991 198.778 101.72 200.377 101.466C201.975 101.213 203.61 101.086 205.282 101.086C207.97 101.086 210.096 101.647 211.658 102.77C213.22 103.856 214.347 105.304 215.037 107.114C215.727 108.888 216.073 110.843 216.073 112.979C216.073 114.898 215.8 116.925 215.255 119.061C214.71 121.161 213.929 123.26 212.912 125.36C211.931 127.424 210.75 129.379 209.369 131.225C207.225 134.085 204.609 136.438 201.521 138.285C198.469 140.095 195.163 141 191.602 141ZM198.088 134.158C199.359 133.325 200.558 132.058 201.685 130.356C202.847 128.655 203.937 126.609 204.955 124.22C205.863 122.011 206.571 119.93 207.08 117.975C207.589 115.984 207.843 114.336 207.843 113.033C207.843 111.694 207.462 110.644 206.699 109.883C205.972 109.123 204.809 108.743 203.211 108.743C202.629 111.857 202.03 114.735 201.412 117.377C200.831 120.02 200.249 122.681 199.668 125.36C199.123 128.039 198.596 130.972 198.088 134.158Z" stroke="url(#paint13_linear_5_173)" stroke-width="8" mask="url(#path-64-outside-1_5_173)"/>
<path d="M226.504 140.62C226.577 140.004 226.65 139.407 226.722 138.828C226.795 138.249 226.868 137.669 226.94 137.09L227.267 134.049C227.304 133.542 227.34 133.072 227.376 132.637C227.413 132.203 227.449 131.804 227.485 131.442H222.744L220.564 139.262C219.764 139.371 218.82 139.498 217.73 139.642C216.64 139.751 215.622 139.86 214.678 139.968C214.096 140.041 213.515 140.113 212.934 140.185C212.389 140.258 211.825 140.33 211.244 140.403L215.55 126.175C216.058 124.473 216.64 122.536 217.294 120.364C217.948 118.192 218.602 115.966 219.256 113.685C219.946 111.404 220.582 109.268 221.163 107.277C221.781 105.249 222.271 103.548 222.635 102.172C225.105 101.991 227.612 101.774 230.156 101.521C232.735 101.267 235.242 100.923 237.677 100.489C237.495 102.516 237.313 104.815 237.132 107.385C236.986 109.92 236.841 112.544 236.696 115.26C236.587 117.975 236.46 120.654 236.314 123.297C236.242 125.795 236.151 128.383 236.042 131.062C235.933 133.705 235.824 136.42 235.715 139.208C235.17 139.28 234.625 139.353 234.08 139.425C233.535 139.498 232.99 139.57 232.445 139.642C231.536 139.787 230.537 139.95 229.447 140.131C228.357 140.312 227.376 140.475 226.504 140.62ZM224.052 126.012C224.27 126.012 224.669 125.994 225.251 125.958C225.868 125.921 226.45 125.885 226.995 125.849C227.54 125.813 227.867 125.795 227.976 125.795C227.976 125.324 228.048 124.365 228.194 122.917C228.339 121.468 228.484 119.948 228.63 118.355C228.702 117.414 228.775 116.454 228.848 115.477C228.957 114.463 229.066 113.431 229.175 112.381L229.502 107.657L228.684 107.711L227.431 112.381L224.052 126.012Z" stroke="url(#paint14_linear_5_173)" stroke-width="8" mask="url(#path-64-outside-1_5_173)"/>
<path d="M240.871 140.783C241.271 138.792 241.671 136.819 242.07 134.864C242.506 132.872 242.906 130.917 243.269 128.999C244.65 122.12 245.776 115.531 246.648 109.232C246.249 109.159 245.831 109.123 245.395 109.123C244.959 109.087 244.541 109.087 244.141 109.123C243.269 109.196 242.416 109.087 241.58 108.797C241.616 108.508 241.634 108.2 241.634 107.874C241.634 107.512 241.634 107.15 241.634 106.788C241.634 106.39 241.634 106.01 241.634 105.648C241.634 105.249 241.653 104.869 241.689 104.507C241.725 104.109 241.743 103.693 241.743 103.258C241.743 102.788 241.762 102.317 241.798 101.846C242.743 101.919 243.687 101.973 244.632 102.009C245.577 102.045 246.521 102.064 247.466 102.064C250.155 102.064 252.716 101.973 255.15 101.792C257.621 101.611 259.892 101.394 261.963 101.14L261.363 104.073L260.873 106.625C260.691 107.566 260.528 108.309 260.382 108.852C259.983 108.96 259.583 109.051 259.183 109.123C258.784 109.196 258.384 109.25 257.984 109.286C257.585 109.322 257.167 109.377 256.731 109.449C256.331 109.521 255.932 109.594 255.532 109.666C254.987 112.345 254.533 114.662 254.169 116.617C253.842 118.572 253.534 120.455 253.243 122.265C252.989 124.039 252.68 125.994 252.316 128.13C251.699 131.786 251.154 135.497 250.681 139.262L240.871 140.783Z" stroke="url(#paint15_linear_5_173)" stroke-width="8" mask="url(#path-64-outside-1_5_173)"/>
<path d="M269.827 140.62C269.9 140.004 269.973 139.407 270.045 138.828C270.118 138.249 270.191 137.669 270.263 137.09L270.59 134.049C270.627 133.542 270.663 133.072 270.699 132.637C270.736 132.203 270.772 131.804 270.808 131.442H266.067L263.887 139.262C263.088 139.371 262.143 139.498 261.053 139.642C259.963 139.751 258.946 139.86 258.001 139.968C257.42 140.041 256.838 140.113 256.257 140.185C255.712 140.258 255.149 140.33 254.567 140.403L258.873 126.175C259.382 124.473 259.963 122.536 260.617 120.364C261.271 118.192 261.925 115.966 262.579 113.685C263.269 111.404 263.905 109.268 264.486 107.277C265.104 105.249 265.595 103.548 265.958 102.172C268.429 101.991 270.936 101.774 273.479 101.521C276.059 101.267 278.566 100.923 281 100.489C280.818 102.516 280.637 104.815 280.455 107.385C280.31 109.92 280.164 112.544 280.019 115.26C279.91 117.975 279.783 120.654 279.637 123.297C279.565 125.795 279.474 128.383 279.365 131.062C279.256 133.705 279.147 136.42 279.038 139.208C278.493 139.28 277.948 139.353 277.403 139.425C276.858 139.498 276.313 139.57 275.768 139.642C274.86 139.787 273.86 139.95 272.77 140.131C271.68 140.312 270.699 140.475 269.827 140.62ZM267.375 126.012C267.593 126.012 267.993 125.994 268.574 125.958C269.192 125.921 269.773 125.885 270.318 125.849C270.863 125.813 271.19 125.795 271.299 125.795C271.299 125.324 271.372 124.365 271.517 122.917C271.662 121.468 271.808 119.948 271.953 118.355C272.026 117.414 272.098 116.454 272.171 115.477C272.28 114.463 272.389 113.431 272.498 112.381L272.825 107.657L272.007 107.711L270.754 112.381L267.375 126.012Z" stroke="url(#paint16_linear_5_173)" stroke-width="8" mask="url(#path-64-outside-1_5_173)"/>
<defs>
<linearGradient id="paint0_linear_5_173" x1="18.5156" y1="73.5764" x2="4.94712" y2="48.2896" gradientUnits="userSpaceOnUse">
<stop stop-color="#0070B6"/>
<stop offset="1" stop-color="#1D2C5E"/>
</linearGradient>
<linearGradient id="paint1_linear_5_173" x1="184.004" y1="21.9189" x2="201.227" y2="3.46523" gradientUnits="userSpaceOnUse">
<stop stop-color="#0070B6"/>
<stop offset="1" stop-color="#1D2C5E"/>
</linearGradient>
<linearGradient id="paint2_linear_5_173" x1="108.864" y1="52.6848" x2="106.811" y2="35.4308" gradientUnits="userSpaceOnUse">
<stop stop-color="#0070B6"/>
<stop offset="1" stop-color="#1D2C5E"/>
</linearGradient>
<linearGradient id="paint3_linear_5_173" x1="296.998" y1="49.3636" x2="296.178" y2="33.7895" gradientUnits="userSpaceOnUse">
<stop stop-color="#125D9E"/>
<stop offset="1" stop-color="#1D2C5E"/>
</linearGradient>
<linearGradient id="paint4_linear_5_173" x1="239.518" y1="26.9153" x2="221.444" y2="55.6686" gradientUnits="userSpaceOnUse">
<stop stop-color="#125D9E"/>
<stop offset="1" stop-color="#1D2C5E"/>
</linearGradient>
<linearGradient id="paint5_linear_5_173" x1="79.5644" y1="73.0342" x2="91.8876" y2="97.2701" gradientUnits="userSpaceOnUse">
<stop stop-color="#105FA1"/>
<stop offset="1" stop-color="#1D2C5E"/>
</linearGradient>
<linearGradient id="paint6_linear_5_173" x1="33.0628" y1="64.7612" x2="47.325" y2="97.8237" gradientUnits="userSpaceOnUse">
<stop stop-color="#105FA1"/>
<stop offset="1" stop-color="#1D2C5E"/>
</linearGradient>
<linearGradient id="paint7_linear_5_173" x1="95.6609" y1="77.0437" x2="117.238" y2="77.0437" gradientUnits="userSpaceOnUse">
<stop stop-color="#3C5AA6"/>
<stop offset="0.9331" stop-color="#2B73B9"/>
<stop offset="1" stop-color="#2A75BB"/>
</linearGradient>
<linearGradient id="paint8_linear_5_173" x1="5.55193" y1="65.9376" x2="365.501" y2="65.9376" gradientUnits="userSpaceOnUse">
<stop stop-color="#3C5AA6"/>
<stop offset="0.9331" stop-color="#2B73B9"/>
<stop offset="1" stop-color="#2A75BB"/>
</linearGradient>
<linearGradient id="paint9_linear_5_173" x1="107" y1="141" x2="284.5" y2="112" gradientUnits="userSpaceOnUse">
<stop stop-color="#3A5DA8"/>
<stop offset="1" stop-color="#2A75BA"/>
</linearGradient>
<linearGradient id="paint10_linear_5_173" x1="107" y1="141" x2="284.5" y2="112" gradientUnits="userSpaceOnUse">
<stop stop-color="#3A5DA8"/>
<stop offset="1" stop-color="#2A75BA"/>
</linearGradient>
<linearGradient id="paint11_linear_5_173" x1="107" y1="141" x2="284.5" y2="112" gradientUnits="userSpaceOnUse">
<stop stop-color="#3A5DA8"/>
<stop offset="1" stop-color="#2A75BA"/>
</linearGradient>
<linearGradient id="paint12_linear_5_173" x1="107" y1="141" x2="284.5" y2="112" gradientUnits="userSpaceOnUse">
<stop stop-color="#3A5DA8"/>
<stop offset="1" stop-color="#2A75BA"/>
</linearGradient>
<linearGradient id="paint13_linear_5_173" x1="107" y1="141" x2="284.5" y2="112" gradientUnits="userSpaceOnUse">
<stop stop-color="#3A5DA8"/>
<stop offset="1" stop-color="#2A75BA"/>
</linearGradient>
<linearGradient id="paint14_linear_5_173" x1="107" y1="141" x2="284.5" y2="112" gradientUnits="userSpaceOnUse">
<stop stop-color="#3A5DA8"/>
<stop offset="1" stop-color="#2A75BA"/>
</linearGradient>
<linearGradient id="paint15_linear_5_173" x1="107" y1="141" x2="284.5" y2="112" gradientUnits="userSpaceOnUse">
<stop stop-color="#3A5DA8"/>
<stop offset="1" stop-color="#2A75BA"/>
</linearGradient>
<linearGradient id="paint16_linear_5_173" x1="107" y1="141" x2="284.5" y2="112" gradientUnits="userSpaceOnUse">
<stop stop-color="#3A5DA8"/>
<stop offset="1" stop-color="#2A75BA"/>
</linearGradient>
</defs>
</svg>
